<svg width="26" height="34" viewBox="0 0 26 34" fill="none" xmlns="http://www.w3.org/2000/svg">
<path d="M13 1.00003C6.38318 1.00003 1 6.40267 1 13.0433C1 13.9095 1.09228 14.7746 1.27422 15.6146C1.35681 15.9961 1.72497 17.1751 1.76428 17.2799C2.40907 18.9725 3.36089 20.4156 4.56169 21.605L2.8588 19.4845C2.99956 19.7073 11.449 32.1754 11.449 32.1754C11.7912 32.676 12.3573 33 12.9987 33C12.9992 33 12.9996 33 13.0002 33C13.0005 33 13.001 33 13.0015 33C13.6429 33 14.209 32.6759 14.5471 32.1817C14.8851 31.6874 23.5141 18.8535 23.5547 18.7782C24.2246 17.5618 24.701 16.1412 24.8991 14.6323C24.0882 17.6558 24.5899 16.2419 24.726 15.6145C24.9002 14.8421 25 13.9552 25 13.0449C25 13.0443 25 13.0438 25 13.0432C25 6.40264 19.6168 1 13 1L13 1.00003ZM23.3663 15.3163C23.2462 15.8697 22.8031 17.1184 22.7682 17.2008C22.6356 17.514 22.2595 18.2418 22.2221 18.3076C22.147 18.4398 13.401 31.3872 13.401 31.3872C13.2711 31.5791 13.0774 31.5999 13.0001 31.5999C12.9227 31.5999 12.7291 31.5791 12.5993 31.3873C12.5993 31.3873 4.14375 18.9101 4.0103 18.697L3.99861 18.6782C3.22608 17.4563 2.68688 16.0096 2.48143 14.4567C3.03228 16.6946 2.70683 15.6527 2.63398 15.3165C2.47997 14.6342 2.39171 13.8506 2.39171 13.0464C2.39171 13.0453 2.39171 13.0443 2.39171 13.0432C2.39164 7.17471 7.15055 2.40017 13 2.40017C18.8495 2.40017 23.6084 7.17472 23.6084 13.0433C23.6084 13.8091 23.5269 14.574 23.3663 15.3163V15.3163Z" fill="#464646" stroke="#464646" stroke-width="0.6"/>
<path d="M12.9973 7.93854C11.6393 7.93854 10.3625 8.46928 9.40221 9.43296C8.44128 10.3971 7.91211 11.6793 7.91211 13.0432C7.91211 13.4151 7.95128 13.7845 8.02858 14.1413C8.15194 14.711 8.37278 15.2527 8.68522 15.7519C9.06171 16.3459 9.53638 16.8415 10.0913 17.2289L8.88945 16.0531C9.35488 16.6911 9.96838 17.2197 10.6638 17.5816C11.3859 17.9575 12.1711 18.1481 12.9974 18.1481C13.8234 18.1481 14.6084 17.9574 15.3307 17.5815C16.332 17.0507 17.1205 16.2287 17.5989 15.2282L17.1084 16.0488C17.4858 15.538 17.771 14.9338 17.9255 14.2787C17.6218 15.2531 17.8428 14.7107 17.9664 14.1402C18.0403 13.8117 18.0826 13.4344 18.0826 13.0472C18.0826 13.0457 18.0826 13.0443 18.0826 13.0429C18.0826 11.6794 17.5535 10.3973 16.5926 9.43303C15.632 8.46929 14.3552 7.93848 12.9973 7.93848L12.9973 7.93854ZM16.6065 13.8421C16.4721 14.4474 16.2037 14.9758 15.8334 15.4144C15.8752 15.4123 15.5512 15.7512 15.1721 16.0158L15.9835 15.2242C15.6442 15.6893 15.1972 16.0745 14.6911 16.3381C14.1684 16.61 13.5986 16.748 12.9973 16.748C12.3957 16.748 11.8257 16.61 11.3031 16.3381C10.7972 16.0747 10.3505 15.6898 10.0114 15.2248L9.45038 15.639L10.0072 15.2191C9.95693 15.1502 9.8145 14.9271 9.79167 14.8876C9.52928 14.4409 9.35763 13.9111 9.31577 13.345C9.33456 13.6041 9.30375 13.3294 9.30375 13.0475C9.30375 13.046 9.30375 13.0445 9.30375 13.0431C9.30375 12.0542 9.6877 11.1241 10.3849 10.4245C11.0826 9.72438 12.0103 9.33886 12.9973 9.33886C13.9842 9.33886 14.912 9.72445 15.6097 10.4246C16.307 11.1243 16.6908 12.0543 16.6908 13.0433C16.6908 13.315 16.6624 13.5837 16.6065 13.8421V13.8421Z" fill="#464646" stroke="#464646" stroke-width="0.6"/>
</svg>
