<svg width="30" height="24" viewBox="0 0 30 24" fill="none" xmlns="http://www.w3.org/2000/svg">
<path d="M26.25 0H3.75C1.68187 0 0 1.794 0 4V20C0 22.206 1.68187 24 3.75 24H26.25C28.3181 24 30 22.206 30 20V4C30 1.794 28.3181 0 26.25 0ZM26.25 2C26.4338 2 26.5987 2.058 26.7656 2.112L15.6731 13.82C15.3094 14.208 14.6888 14.208 14.3212 13.822L3.165 2.126C3.3525 2.06 3.54375 2 3.75 2H26.25ZM28.125 20C28.125 21.104 27.285 22 26.25 22H3.75C2.71688 22 1.875 21.104 1.875 20V4C1.875 3.874 1.92 3.766 1.9425 3.648L13.0069 15.248C13.5562 15.824 14.2762 16.114 14.9981 16.114C15.7219 16.114 16.4438 15.822 16.9931 15.242L28.0462 3.576C28.0744 3.716 28.125 3.85 28.125 4V20Z" fill="#464646"/>
</svg>
