<svg width="19" height="38" viewBox="0 0 19 38" fill="none" xmlns="http://www.w3.org/2000/svg">
<path d="M3.69531 29.5119C3.69531 32.2207 6.00074 34.4245 8.83456 34.4245C11.6684 34.4245 13.9739 32.2207 13.9739 29.5119C13.9739 26.803 11.6684 24.5991 8.83456 24.5991C6.00074 24.5991 3.69531 26.803 3.69531 29.5119ZM12.1077 29.5119C12.1077 31.237 10.6393 32.6406 8.83456 32.6406C7.02981 32.6406 5.56151 31.237 5.56151 29.5119C5.56151 27.7867 7.02981 26.383 8.83456 26.383C10.6393 26.383 12.1077 27.7866 12.1077 29.5119Z" fill="#464646" stroke="white" stroke-width="0.4"/>
<path d="M17.0669 7.79197C17.3144 7.79197 17.5517 7.698 17.7267 7.53072C17.9017 7.36345 18 7.13658 18 6.90002C18 6.66346 17.9017 6.43658 17.7267 6.26931C17.5517 6.10204 17.3144 6.00806 17.0669 6.00806H11.0996V5.38969H17.0669C17.3144 5.38969 17.5517 5.29571 17.7267 5.12844C17.9017 4.96116 18 4.73429 18 4.49773C18 4.26117 17.9017 4.0343 17.7267 3.86702C17.5517 3.69975 17.3144 3.60578 17.0669 3.60578H11.0996V1.89195C11.0996 1.65539 11.0013 1.42852 10.8263 1.26125C10.6513 1.09397 10.414 1 10.1665 1C9.91903 1 9.68169 1.09397 9.5067 1.26125C9.33171 1.42852 9.2334 1.65539 9.2334 1.89195V22.0337C9.10021 22.0272 8.96687 22.024 8.8335 22.024C8.69327 22.024 8.55384 22.0279 8.41534 22.0349V1.89195C8.41534 1.65539 8.31703 1.42852 8.14204 1.26125C7.96705 1.09397 7.72971 1 7.48224 1C7.23477 1 6.99743 1.09397 6.82244 1.26125C6.64745 1.42852 6.54914 1.65539 6.54914 1.89195V22.3497C3.34075 23.2865 1 26.1425 1 29.5119C1 33.6408 4.51405 37 8.8335 37C13.153 37 16.667 33.6409 16.667 29.5119C16.667 26.1361 14.3173 23.2762 11.0996 22.3447V14.3784H17.0669C17.3144 14.3784 17.5517 14.2844 17.7267 14.1172C17.9017 13.9499 18 13.723 18 13.4865C18 13.2499 17.9017 13.023 17.7267 12.8557C17.5517 12.6885 17.3144 12.5945 17.0669 12.5945H11.0996V11.83H17.0669C17.3144 11.83 17.5517 11.736 17.7267 11.5687C17.9017 11.4014 18 11.1746 18 10.938C18 10.7015 17.9017 10.4746 17.7267 10.3073C17.5517 10.14 17.3144 10.0461 17.0669 10.0461H11.0996V7.79197H17.0669ZM14.8008 29.5119C14.8008 32.6572 12.1239 35.2161 8.8335 35.2161C5.54313 35.2161 2.8662 32.6572 2.8662 29.5119C2.8662 26.3666 5.54313 23.8079 8.8335 23.8079C12.1239 23.8079 14.8008 26.3666 14.8008 29.5119Z" fill="#464646" stroke="white" stroke-width="0.4"/>
</svg>
