<svg width="39" height="23" viewBox="0 0 39 23" fill="none" xmlns="http://www.w3.org/2000/svg">
<path fill-rule="evenodd" clip-rule="evenodd" d="M28.6394 21.2039C28.6782 21.1998 28.7177 21.1977 28.7577 21.1977C32.9245 21.1977 36.3132 17.6421 36.3132 13.2684C36.3132 8.89459 32.9245 5.33902 28.7577 5.33902C28.3552 5.33902 27.9373 5.38049 27.4773 5.46344C27.0978 5.53131 26.703 5.39934 26.473 5.12033C24.7058 3.01639 22.1682 1.80607 19.5117 1.80607C15.4982 1.80607 11.9562 4.49066 10.7065 8.48738C10.6337 8.72492 10.4535 8.92475 10.212 9.03787C9.9705 9.15475 9.68683 9.17738 9.42233 9.0982C8.90483 8.94738 8.37967 8.8682 7.866 8.8682C4.64217 8.8682 2.024 11.632 2.024 15.033C2.024 18.4302 4.646 21.1977 7.866 21.1977H19.5155C20.0713 21.1977 20.5237 21.6011 20.5237 22.0989C20.5237 22.5966 20.0675 23 19.5078 23H7.86217C3.52667 23 0 19.4256 0 15.033C0 10.6403 3.52667 7.0659 7.86217 7.0659C8.26083 7.0659 8.6595 7.09607 9.05817 7.16016C10.7755 2.84295 14.8733 0 19.5078 0C22.6167 0 25.5683 1.30459 27.6997 3.59705C28.0638 3.5518 28.4127 3.53295 28.7577 3.53295C34.04 3.53295 38.3333 7.89918 38.3333 13.2684C38.3333 18.6375 34.04 23 28.7577 23C28.7123 23 28.6677 22.9973 28.624 22.9921C28.5808 22.9972 28.5369 22.9998 28.4922 22.9998C23.5573 22.9998 19.503 19.1438 19.1755 14.2778L16.0548 16.0886C15.5871 16.3601 14.9623 16.2395 14.6595 15.8247C14.3566 15.4062 14.4908 14.8481 14.9546 14.5767L19.616 11.8695C19.9495 11.6772 20.3788 11.6772 20.7123 11.8695L25.3775 14.5767C25.8451 14.8481 25.9793 15.4062 25.6726 15.8247C25.4848 16.0886 25.159 16.2357 24.8293 16.2357C24.6415 16.2357 24.4498 16.1904 24.2811 16.0886L21.198 14.2996C21.5219 18.1587 24.6667 21.1938 28.4884 21.1938C28.5397 21.1938 28.5901 21.1972 28.6394 21.2039Z" fill="#464646"/>
</svg>
