<svg width="30" height="30" viewBox="0 0 30 30" fill="none" xmlns="http://www.w3.org/2000/svg">
<path d="M29.9905 28.6929C29.4758 22.6071 25.3153 17.5714 19.6751 15.75C22.0342 14.2286 23.5997 11.5929 23.5997 8.57143C23.5997 3.83571 19.7395 0 15 0C10.2391 0 6.40032 3.83571 6.40032 8.57143C6.40032 11.5929 7.96585 14.2286 10.3249 15.75C4.68467 17.5714 0.524226 22.6071 0.00953137 28.6929C0.00953137 28.8 -0.0119142 28.8857 0.00953137 29.0357C0.0524226 29.5714 0.524226 30 1.06037 30C1.66084 30 2.13264 29.5071 2.13264 28.9286C2.69023 22.3071 8.24464 17.1429 15 17.1429C21.7554 17.1429 27.2883 22.3071 27.8674 28.9286C27.8674 29.5071 28.3392 30 28.9396 30C29.4758 30 29.9476 29.5714 29.9905 29.0357C30.0119 28.8857 29.9905 28.8 29.9905 28.6929ZM8.54488 8.57143C8.54488 5.01429 11.44 2.14286 15 2.14286C18.56 2.14286 21.4551 5.01429 21.4551 8.57143C21.4551 12.1286 18.56 15 15 15C11.44 15 8.54488 12.1286 8.54488 8.57143Z" fill="#464646"/>
</svg>
